<svg xmlns="http://www.w3.org/2000/svg" width="60" height="57" viewBox="0 0 60 57" fill="none">
  <path d="M26.4583 2.74723C27.9567 -0.107308 32.0433 -0.107307 33.5417 2.74723L39.8544 14.7733C40.4439 15.8965 41.5313 16.6734 42.7849 16.8672L56.3129 18.959C59.5739 19.4632 60.8562 23.4765 58.4918 25.7782L48.953 35.0639C48.0181 35.974 47.5858 37.2828 47.7947 38.5707L49.9157 51.6442C50.4367 54.8555 47.1101 57.3125 44.194 55.8702L31.7733 49.7271C30.6557 49.1743 29.3443 49.1743 28.2267 49.7271L15.806 55.8702C12.8899 57.3124 9.56331 54.8555 10.0843 51.6442L12.2053 38.5707C12.4142 37.2828 11.9819 35.974 11.047 35.0639L1.50821 25.7782C-0.856213 23.4765 0.426143 19.4632 3.68713 18.959L17.2151 16.8672C18.4687 16.6734 19.5561 15.8965 20.1456 14.7733L26.4583 2.74723Z" fill="url(#paint0_linear_304_1684)"/>
  <defs>
    <linearGradient id="paint0_linear_304_1684" x1="30" y1="-4" x2="30" y2="66" gradientUnits="userSpaceOnUse">
      <stop stop-color="#FF0000"/>
      <stop offset="0.994804" stop-color="#00FF47"/>
    </linearGradient>
  </defs>
</svg>